# xmcd CD database file
#
# Track frame offsets:
#	187
#	19565
#	42355
#
# Disc length: 821 seconds
#
# Revision: 1
# Processed by: cddbd v1.5.1PL2 Copyright (c) Steve Scherf et al.
# Submitted via: CDex 1.51
#
DISCID=19033303
DTITLE=class - もう君を離さない
DYEAR=1993
DGENRE=J-Pop
TTITLE0=もう君を離さない
TTITLE1=サヨナラ
TTITLE2=もう君を離さない (Original Karaoke)
EXTD=YEAR: 1993/10/18
EXTT0=
EXTT1=
EXTT2=
PLAYORDER=
